HIERARCHY
ROOT hip
{
  OFFSET 0.0 0.0 0.0
  CHANNELS 6 Xposition Yposition Zposition Zrotation Yrotation Xrotation
  JOINT abdomen
  {
    OFFSET 0.0 20.6881 -0.73152
    CHANNELS 3 Zrotation Xrotation Yrotation
    JOINT chest
    {
      OFFSET 0.0 11.7043 -0.48768
      CHANNELS 3 Zrotation Xrotation Yrotation
      JOINT neck
      {
        OFFSET 0.0 22.1894 -2.19456
        CHANNELS 3 Zrotation Xrotation Yrotation
        JOINT head
        {
          OFFSET -0.24384 7.07133 1.2192
          CHANNELS 3 Zrotation Xrotation Yrotation
          JOINT leftEye
          {
            OFFSET 4.14528 8.04674 8.04672
            CHANNELS 3 Zrotation Xrotation Yrotation
            End Site
            {
              OFFSET 1.0 0.0 0.0
            }
          }
          JOINT rightEye
          {
            OFFSET -3.6576 8.04674 8.04672
            CHANNELS 3 Zrotation Xrotation Yrotation
            End Site
            {
              OFFSET 1.0 0.0 0.0
            }
          }
        }
      }
      JOINT rCollar
      {
        OFFSET -2.68224 19.2634 -4.8768
        CHANNELS 3 Zrotation Xrotation Yrotation
        JOINT rShldr
        {
          OFFSET -8.77824 -1.95073 1.46304
          CHANNELS 3 Zrotation Xrotation Yrotation
          JOINT rForeArm
          {
            OFFSET -28.1742 -1.7115 0.48768
            CHANNELS 3 Zrotation Xrotation Yrotation
            JOINT rHand
            {
              OFFSET -22.5879 0.773209 7.07136
              CHANNELS 3 Zrotation Xrotation Yrotation
              JOINT rThumb1
              {
                OFFSET -1.2192 -0.487915 3.41376
                CHANNELS 3 Zrotation Xrotation Yrotation
                JOINT rThumb2
                {
                  OFFSET -3.37035 -0.52449 3.41376
                  CHANNELS 3 Zrotation Xrotation Yrotation
                  End Site
                  {
                    OFFSET -1.78271 -1.18214 1.43049
                  }
                }
              }
              JOINT rIndex1
              {
                OFFSET -7.75947 0.938293 5.60832
                CHANNELS 3 Zrotation Xrotation Yrotation
                JOINT rIndex2
                {
                  OFFSET -2.54057 -0.884171 1.56538
                  CHANNELS 3 Zrotation Xrotation Yrotation
                  End Site
                  {
                    OFFSET -1.62519 -0.234802 1.16502
                  }
                }
              }
              JOINT rMid1
              {
                OFFSET -8.24714 1.18213 3.41376
                CHANNELS 3 Zrotation Xrotation Yrotation
                JOINT rMid2
                {
                  OFFSET -3.10165 -0.590103 1.0647
                  CHANNELS 3 Zrotation Xrotation Yrotation
                  End Site
                  {
                    OFFSET -2.48547 -0.328903 0.83742
                  }
                }
              }
              JOINT rRing1
              {
                OFFSET -8.82822 0.546677 1.51678
                CHANNELS 3 Zrotation Xrotation Yrotation
                JOINT rRing2
                {
                  OFFSET -2.60934 -0.819778 -0.0198488
                  CHANNELS 3 Zrotation Xrotation Yrotation
                  End Site
                  {
                    OFFSET -2.33842 -0.294052 0.168128
                  }
                }
              }
              JOINT rPinky1
              {
                OFFSET -8.27202 -0.0477905 -0.4584
                CHANNELS 3 Zrotation Xrotation Yrotation
                JOINT rPinky2
                {
                  OFFSET -1.82734 -0.647385 -0.700984
                  CHANNELS 3 Zrotation Xrotation Yrotation
                  End Site
                  {
                    OFFSET -1.69225 -0.51767 -0.607171
                  }
                }
              }
            }
          }
        }
      }
      JOINT lCollar
      {
        OFFSET 2.68224 19.2634 -4.8768
        CHANNELS 3 Zrotation Xrotation Yrotation
        JOINT lShldr
        {
          OFFSET 8.77824 -1.95073 1.46304
          CHANNELS 3 Zrotation Xrotation Yrotation
          JOINT lForeArm
          {
            OFFSET 28.1742 -1.7115 0.48768
            CHANNELS 3 Zrotation Xrotation Yrotation
            JOINT lHand
            {
              OFFSET 22.5879 0.773209 7.07136
              CHANNELS 3 Zrotation Xrotation Yrotation
              JOINT lThumb1
              {
                OFFSET 1.2192 -0.487915 3.41376
                CHANNELS 3 Zrotation Xrotation Yrotation
                JOINT lThumb2
                {
                  OFFSET 3.37035 -0.52449 3.41376
                  CHANNELS 3 Zrotation Xrotation Yrotation
                  End Site
                  {
                    OFFSET 1.78271 -1.18214 1.43049
                  }
                }
              }
              JOINT lIndex1
              {
                OFFSET 7.75947 0.938293 5.60832
                CHANNELS 3 Zrotation Xrotation Yrotation
                JOINT lIndex2
                {
                  OFFSET 2.54057 -0.884171 1.56538
                  CHANNELS 3 Zrotation Xrotation Yrotation
                  End Site
                  {
                    OFFSET 1.62519 -0.234802 1.16502
                  }
                }
              }
              JOINT lMid1
              {
                OFFSET 8.24714 1.18213 3.41376
                CHANNELS 3 Zrotation Xrotation Yrotation
                JOINT lMid2
                {
                  OFFSET 3.10165 -0.590103 1.0647
                  CHANNELS 3 Zrotation Xrotation Yrotation
                  End Site
                  {
                    OFFSET 2.48547 -0.328903 0.83742
                  }
                }
              }
              JOINT lRing1
              {
                OFFSET 8.82822 0.546677 1.51678
                CHANNELS 3 Zrotation Xrotation Yrotation
                JOINT lRing2
                {
                  OFFSET 2.60934 -0.819778 -0.0198488
                  CHANNELS 3 Zrotation Xrotation Yrotation
                  End Site
                  {
                    OFFSET 2.33842 -0.294052 0.168128
                  }
                }
              }
              JOINT lPinky1
              {
                OFFSET 8.27202 -0.0477905 -0.4584
                CHANNELS 3 Zrotation Xrotation Yrotation
                JOINT lPinky2
                {
                  OFFSET 1.82734 -0.647385 -0.700984
                  CHANNELS 3 Zrotation Xrotation Yrotation
                  End Site
                  {
                    OFFSET 1.69225 -0.51767 -0.607171
                  }
                }
              }
            }
          }
        }
      }
    }
  }
  JOINT rButtock
  {
    OFFSET -8.77824 4.35084 1.2192
    CHANNELS 3 Zrotation Xrotation Yrotation
    JOINT rThigh
    {
      OFFSET 0.0 -1.70687 -2.19456
      CHANNELS 3 Zrotation Xrotation Yrotation
      JOINT rShin
      {
        OFFSET 0.0 -36.8199 0.73152
        CHANNELS 3 Zrotation Xrotation Yrotation
        JOINT rFoot
        {
          OFFSET 0.73152 -45.1104 -5.12064
          CHANNELS 3 Zrotation Xrotation Yrotation
          End Site
          {
            OFFSET -1.1221 -3.69964 12.103
          }
        }
      }
    }
  }
  JOINT lButtock
  {
    OFFSET 8.77824 4.35084 1.2192
    CHANNELS 3 Zrotation Xrotation Yrotation
    JOINT lThigh
    {
      OFFSET 0.0 -1.70687 -2.19456
      CHANNELS 3 Zrotation Xrotation Yrotation
      JOINT lShin
      {
        OFFSET 0.0 -36.8199 0.73152
        CHANNELS 3 Zrotation Xrotation Yrotation
        JOINT lFoot
        {
          OFFSET -0.73152 -45.1104 -5.12064
          CHANNELS 3 Zrotation Xrotation Yrotation
          End Site
          {
            OFFSET 1.1221 -3.69964 12.103
          }
        }
      }
    }
  }
}
MOTION
Frames: 4
Frame Time: 0.00833333
0.0 80.0209 0.0 7.49 6.6593 5.0845 -7.95048 6.20138 -7.16465 7.59964 -3.73494 -1.89275 6.72454 -3.54445 3.91059 -9.52579 -19.1277 3.97227 -0.0 0.0 0.0 -0.0 0.0 0.0 1.55828e-13 -9.93883e-14 -3.5334e-13 74.7275 6.01265 -2.04219 -10.5338 -4.4722 18.8065 -0.0071927 -2.4208 -0.340425 -1.97672e-10 -4.78162e-09 -2.05167e-09 -3.34345e-10 -8.28282e-09 -3.55365e-09 -1.97676e-10 -4.78162e-09 -2.05168e-09 7.73091 5.47488 0.417314 -1.97675e-10 -4.78162e-09 -2.05166e-09 2.90554 0.965183 0.102902 -1.9767e-10 -4.78162e-09 -2.05167e-09 10.2786 0.731801 0.0259123 -1.97676e-10 -4.78162e-09 -2.05167e-09 2.22167 -0.733487 -0.20892 1.55678e-13 -9.93978e-14 -3.53539e-13 -75.7113 36.3244 -11.8027 19.022 -11.8294 -36.3555 0.0910429 -8.57508 1.21432 1.62175e-10 3.01523e-10 -4.78842e-10 2.85796e-10 5.33169e-10 -8.2874e-10 1.62167e-10 3.01524e-10 -4.78826e-10 -7.73091 5.47488 -0.417314 1.62175e-10 3.01519e-10 -4.78839e-10 -2.90554 0.965183 -0.102902 1.62175e-10 3.01521e-10 -4.78842e-10 -10.2786 0.731801 -0.0259123 1.62181e-10 3.01526e-10 -4.78855e-10 -2.22167 -0.733487 0.20892 -2.03217e-16 0.0 -3.88251e-19 -15.0508 -49.3497 -5.2118 -0.314932 38.9195 0.712943 -2.85874 -0.832298 -17.7473 2.03217e-16 0.0 3.88251e-19 -8.94485 16.2386 -3.18497 -0.0602693 2.80229 -0.515768 3.25461 -11.3989 12.7311
-0.08319999999999972 79.7047 1.040299999999995 7.4674 6.8985 5.2059 -7.91395 6.08975 -7.37193 7.65497 -3.75783 -1.94766 6.80181 -3.52308 3.9568 -9.61095 -19.3201 4.01209 -0.0 0.0 0.0 -0.0 0.0 0.0 1.99845e-13 -7.36276e-14 -2.21304e-13 74.721 6.04348 -2.13099 -10.5967 -4.51209 18.9252 -0.00822401 -2.6036 -0.366162 -1.15936e-09 -3.33398e-09 -1.44959e-09 -1.99784e-09 -5.77599e-09 -2.51237e-09 -1.15936e-09 -3.33399e-09 -1.44959e-09 7.73091 5.47488 0.417314 -1.15936e-09 -3.33399e-09 -1.44958e-09 2.90554 0.965183 0.102902 -1.15936e-09 -3.33398e-09 -1.44959e-09 10.2786 0.731801 0.0259123 -1.15936e-09 -3.33398e-09 -1.44958e-09 2.22167 -0.733487 -0.20892 1.99685e-13 -7.36358e-14 -2.21545e-13 -76.1135 36.5757 -11.3331 18.9666 -11.7652 -36.2265 0.0819479 -8.15755 1.1543 -8.19809e-10 -1.40736e-09 -7.13248e-10 -1.41052e-09 -2.4234e-09 -1.23842e-09 -8.19819e-10 -1.40736e-09 -7.13234e-10 -7.73091 5.47488 -0.417314 -8.19809e-10 -1.40736e-09 -7.13247e-10 -2.90554 0.965183 -0.102902 -8.1981e-10 -1.40735e-09 -7.13249e-10 -10.2786 0.731801 -0.0259123 -8.19804e-10 -1.40735e-09 -7.13262e-10 -2.22167 -0.733487 0.20892 -2.03217e-16 0.0 -3.88251e-19 -15.129 -49.8429 -5.43295 -0.347707 40.5527 0.756376 -2.73218 -0.296105 -17.7227 2.03217e-16 0.0 3.88251e-19 -8.73664 16.8805 -3.43031 -0.0655884 2.72324 -0.542136 3.27929 -11.4966 12.8727
-0.18489999999999895 79.3968 2.095799999999997 7.397 7.1158 5.3349 -7.82372 5.95606 -7.58893 7.70259 -3.78772 -2.00395 6.88466 -3.52166 4.00231 -9.68487 -19.4675 4.05128 -0.0 0.0 0.0 -0.0 0.0 0.0 2.61459e-13 -4.70592e-14 1.50859e-14 74.7265 6.07258 -2.22876 -10.6694 -4.55833 19.0629 -0.00973522 -2.83498 -0.398753 -2.70673e-09 -6.85543e-10 -1.78384e-10 -4.67509e-09 -1.18915e-09 -3.13578e-10 -2.70673e-09 -6.85545e-10 -1.78388e-10 7.73091 5.47488 0.417314 -2.70673e-09 -6.85545e-10 -1.78375e-10 2.90554 0.965183 0.102902 -2.70672e-09 -6.85543e-10 -1.78384e-10 10.2786 0.731801 0.0259123 -2.70673e-09 -6.85538e-10 -1.78383e-10 2.22167 -0.733487 -0.20892 2.61293e-13 -4.70663e-14 1.47815e-14 -76.5437 36.8044 -10.821 18.8869 -11.6727 -36.0426 0.0718889 -7.64799 1.08128 -2.43982e-09 -4.29619e-09 -9.93497e-10 -4.21018e-09 -7.4237e-09 -1.73012e-09 -2.43983e-09 -4.29619e-09 -9.93483e-10 -7.73091 5.47488 -0.417314 -2.43982e-09 -4.29619e-09 -9.93499e-10 -2.90554 0.965183 -0.102902 -2.43982e-09 -4.29618e-09 -9.93498e-10 -10.2786 0.731801 -0.0259123 -2.43981e-09 -4.29618e-09 -9.93512e-10 -2.22167 -0.733487 0.20892 -2.03217e-16 0.0 -3.88251e-19 -15.1674 -50.3498 -5.6943 -0.384415 42.2419 0.798732 -2.58692 0.311657 -17.7203 2.03217e-16 0.0 3.88251e-19 -8.47924 17.363 -3.6817 -0.0699229 2.93101 -0.571036 3.34462 -11.6677 13.068
-0.29579999999999984 79.099 3.1710999999999956 7.3072 7.3054 5.4601 -7.70516 5.81176 -7.79443 7.74323 -3.82751 -2.05612 6.96495 -3.52921 4.04699 -9.74462 -19.5907 4.09272 -0.0 0.0 0.0 -0.0 0.0 0.0 3.0683e-13 -1.28622e-14 2.51064e-13 74.7408 6.10137 -2.33971 -10.7472 -4.60799 19.2103 -0.0115461 -3.07702 -0.432864 -4.13115e-09 2.06226e-09 1.0338e-09 -7.13997e-09 3.5697e-09 1.78347e-09 -4.13114e-09 2.06225e-09 1.0338e-09 7.73091 5.47488 0.417314 -4.13115e-09 2.06225e-09 1.03381e-09 2.90554 0.965183 0.102902 -4.13114e-09 2.06226e-09 1.0338e-09 10.2786 0.731801 0.0259123 -4.13115e-09 2.06226e-09 1.0338e-09 2.22167 -0.733487 -0.20892 3.06664e-13 -1.28686e-14 2.507e-13 -77.0024 37.0035 -10.264 18.7858 -11.5565 -35.8094 0.0620307 -7.09755 1.00265 -3.93901e-09 -6.95308e-09 -1.20265e-09 -6.80134e-09 -1.20234e-08 -2.09838e-09 -3.93902e-09 -6.95308e-09 -1.20264e-09 -7.73091 5.47488 -0.417314 -3.93901e-09 -6.95308e-09 -1.20266e-09 -2.90554 0.965183 -0.102902 -3.93901e-09 -6.95307e-09 -1.20265e-09 -10.2786 0.731801 -0.0259123 -3.939e-09 -6.95306e-09 -1.20267e-09 -2.22167 -0.733487 0.20892 -2.03217e-16 0.0 -3.88251e-19 -15.1605 -50.856 -5.95629 -0.424191 43.9423 0.842571 -2.44208 0.915015 -17.7084 2.03217e-16 0.0 3.88251e-19 -8.19215 17.7934 -3.91111 -0.0734343 3.25171 -0.600968 3.41043 -11.8302 13.2466
